<?xml version="1.0" standalone="no"?>
<!DOCTYPE svg PUBLIC "-//W3C//DTD SVG 20010904//EN"
 "http://www.w3.org/TR/2001/REC-SVG-20010904/DTD/svg10.dtd">
<svg version="1.0" xmlns="http://www.w3.org/2000/svg"
 width="1049.000000pt" height="1049.000000pt" viewBox="0 0 1049.000000 1049.000000"
 preserveAspectRatio="xMidYMid meet">
<metadata>
Created by potrace 1.11, written by Peter Selinger 2001-2013
</metadata>
<g transform="translate(0.000000,1049.000000) scale(0.100000,-0.100000)"
fill="#000000" stroke="none">
<path d="M10278 9335 c-2 -1 -82 -6 -179 -9 -96 -4 -193 -9 -215 -11 -21 -2
-113 -6 -204 -10 -91 -3 -190 -8 -220 -10 -30 -2 -116 -7 -190 -10 -74 -3
-164 -8 -201 -10 -36 -2 -126 -7 -200 -10 -73 -3 -161 -8 -194 -10 -33 -3
-118 -7 -189 -10 -70 -3 -158 -8 -195 -10 -36 -2 -140 -7 -231 -10 -91 -3
-178 -7 -195 -10 -16 -2 -109 -7 -205 -10 -96 -3 -191 -8 -210 -10 -19 -3
-107 -7 -195 -10 -88 -3 -180 -8 -205 -10 -25 -3 -108 -7 -185 -11 -77 -3
-167 -7 -200 -9 -33 -2 -132 -7 -220 -10 -88 -3 -173 -8 -190 -10 -16 -2 -104
-7 -195 -10 -91 -3 -196 -7 -235 -10 -38 -3 -142 -7 -230 -11 -88 -3 -162 -8
-165 -9 -3 -2 -64 -6 -135 -9 -442 -20 -598 -32 -627 -47 -19 -10 -20 -17 -14
-93 4 -44 9 -115 12 -156 2 -41 6 -93 9 -115 9 -74 16 -209 17 -346 1 -115 -2
-142 -18 -175 -36 -74 -109 -70 -144 9 -26 58 -38 203 -45 517 -4 146 -7 276
-9 290 -2 14 -4 33 -4 44 -2 18 -14 18 -328 12 -180 -4 -329 -8 -333 -10 -3
-2 -85 -7 -181 -10 -96 -4 -186 -9 -200 -11 -14 -2 -86 -7 -160 -10 -74 -4
-160 -8 -190 -10 -30 -3 -125 -7 -210 -10 -85 -3 -182 -7 -215 -10 -33 -3
-121 -7 -195 -10 -74 -3 -173 -8 -220 -10 -47 -3 -143 -7 -215 -10 -71 -3
-166 -7 -210 -10 -44 -3 -138 -7 -210 -10 -71 -3 -161 -8 -200 -10 -38 -3
-123 -7 -189 -10 -65 -3 -148 -8 -185 -10 -36 -2 -133 -7 -216 -10 -82 -3
-177 -7 -210 -10 -33 -3 -123 -8 -200 -11 -77 -3 -147 -7 -155 -9 -8 -3 -46
-7 -84 -10 -38 -3 -73 -8 -77 -11 -9 -5 -4 -155 8 -239 4 -27 6 -53 5 -57 -1
-3 3 -44 8 -90 6 -45 12 -112 15 -148 3 -36 8 -76 10 -90 2 -14 7 -54 10 -90
5 -57 16 -171 30 -295 2 -22 7 -69 10 -105 3 -36 10 -105 15 -155 11 -98 17
-158 25 -250 3 -33 12 -125 20 -205 8 -80 17 -167 20 -195 3 -27 12 -115 21
-195 8 -80 16 -152 16 -160 0 -14 13 -145 23 -235 2 -22 7 -67 10 -100 9 -97
35 -366 41 -421 3 -28 7 -70 9 -95 5 -50 17 -167 20 -189 1 -8 6 -49 10 -90 4
-41 16 -158 26 -260 11 -102 20 -192 20 -200 1 -8 19 -190 40 -405 22 -214 42
-412 44 -440 5 -57 19 -196 41 -405 8 -80 17 -170 19 -200 6 -63 34 -330 39
-375 3 -16 8 -74 11 -128 8 -107 22 -137 67 -142 14 -2 34 -6 45 -9 10 -3 146
-8 303 -11 157 -2 420 -7 585 -10 165 -3 426 -8 580 -10 154 -3 372 -7 485
-10 113 -3 333 -7 490 -10 157 -3 371 -7 475 -10 105 -3 345 -7 535 -10 190
-3 402 -8 471 -11 80 -4 129 -2 133 4 3 5 -6 36 -22 68 -24 52 -27 71 -27 159
0 97 -1 100 -25 111 -14 7 -47 15 -75 19 -157 20 -225 52 -225 104 0 21 100
56 187 66 129 15 188 18 323 17 182 0 285 -18 337 -58 83 -63 117 -169 89
-281 -14 -59 -65 -157 -89 -174 -17 -12 2 -27 41 -33 43 -7 210 -13 572 -21
573 -12 661 -15 803 -21 81 -4 150 -11 153 -16 6 -10 -19 -92 -49 -158 -11
-25 -104 -254 -207 -510 -103 -256 -224 -556 -269 -666 -44 -111 -81 -207 -81
-213 0 -16 26 -14 63 5 46 24 1211 806 1215 816 2 4 7 8 12 8 4 0 239 156 521
346 l514 346 640 -8 c789 -9 801 -9 830 10 20 13 23 24 24 92 1 43 3 107 6
143 2 36 7 122 10 191 3 69 8 148 10 175 3 28 7 106 10 175 3 69 8 150 10 180
2 30 7 109 10 175 3 66 8 158 11 205 2 47 6 135 9 195 2 60 7 140 9 179 3 39
8 127 11 196 3 69 8 152 10 185 3 33 7 121 10 195 3 74 8 151 9 170 2 19 7 96
10 170 4 74 9 151 11 170 2 19 7 107 10 195 3 88 8 167 10 175 2 8 7 94 10
190 4 96 8 200 10 230 2 30 6 111 9 180 4 69 8 152 11 185 2 33 7 121 10 195
3 74 8 146 10 160 2 14 7 101 10 194 4 93 8 176 10 185 1 9 6 81 9 161 4 80 9
163 11 185 3 22 7 112 10 200 3 88 8 185 10 215 2 30 7 111 10 180 3 69 8 159
11 200 2 41 6 111 9 155 2 44 7 123 10 175 19 337 15 476 -16 485 -20 7 -106
14 -111 10z m-3044 -226 c15 -11 35 -37 45 -58 27 -52 37 -38 -211 -301 -148
-158 -249 -283 -346 -433 -189 -291 -175 -272 -215 -275 -29 -3 -42 2 -63 23
-31 31 -28 61 13 160 13 33 25 65 27 70 3 18 78 159 97 184 11 13 19 30 19 37
0 7 6 17 13 21 6 4 18 20 25 34 8 14 25 39 38 55 28 34 30 36 69 89 16 22 37
49 46 60 148 179 278 312 331 338 45 22 80 21 112 -4z m-5007 -1174 c20 -8 68
-43 108 -78 39 -34 95 -82 124 -106 122 -105 362 -262 630 -415 166 -95 185
-108 210 -150 26 -42 26 -66 0 -100 -48 -61 -147 -44 -298 49 -9 6 -45 28 -81
49 -249 151 -559 386 -745 566 -80 77 -95 96 -95 123 0 31 11 44 50 61 44 19
53 19 97 1z m3653 -191 c217 -15 513 -95 701 -189 85 -43 217 -121 229 -135 3
-3 23 -19 45 -36 81 -59 255 -245 255 -273 0 -6 3 -11 8 -11 6 0 45 -61 43
-67 0 -2 15 -32 34 -68 19 -36 35 -69 35 -73 0 -4 10 -36 21 -72 38 -123 52
-235 46 -375 -5 -118 -10 -148 -51 -300 -2 -5 -9 -23 -15 -40 -7 -16 -14 -34
-15 -40 -5 -21 -52 -112 -78 -151 -15 -23 -28 -47 -28 -53 0 -6 -4 -11 -8 -11
-4 0 -16 -14 -27 -32 -27 -47 -57 -81 -180 -203 -128 -128 -218 -200 -445
-355 -164 -112 -259 -183 -335 -250 -74 -65 -215 -214 -215 -227 0 -7 -4 -13
-9 -13 -17 0 -110 -160 -141 -243 -54 -139 -67 -213 -79 -447 -8 -173 -15
-200 -57 -219 -68 -30 -326 -44 -524 -27 -147 12 -184 16 -220 21 -19 3 -57 7
-85 10 -56 5 -78 9 -180 32 -38 8 -76 15 -84 16 -25 1 -81 63 -81 90 0 49 64
101 137 111 31 5 43 38 43 115 -1 224 -103 415 -351 656 -115 111 -157 145
-330 265 -52 36 -135 106 -185 155 -176 174 -266 350 -319 620 -13 67 -12 302
1 385 8 47 16 96 18 110 2 14 6 32 9 40 2 8 17 56 33 105 100 321 350 621 691
829 116 70 184 104 323 159 222 89 519 160 765 182 39 4 97 11 130 15 52 8
334 4 475 -6z m3000 -894 c40 -21 39 -116 -2 -157 -13 -12 -39 -25 -58 -27
-19 -2 -91 -19 -160 -36 -69 -18 -133 -34 -144 -36 -165 -33 -373 -104 -569
-195 -268 -124 -265 -123 -292 -111 -38 17 -60 58 -49 90 18 53 229 189 439
284 181 83 469 178 585 194 19 3 60 8 90 12 57 8 126 0 160 -18z m-5988 -750
c43 -12 68 -42 68 -83 0 -84 -36 -97 -440 -162 -262 -42 -363 -66 -592 -141
-197 -64 -263 -70 -303 -29 -14 13 -25 33 -25 44 0 54 173 136 475 226 205 60
396 111 459 121 21 3 48 8 60 10 11 3 53 8 91 11 39 3 72 7 74 9 9 8 97 4 133
-6z m213 -1342 c26 -44 12 -75 -89 -199 -91 -113 -177 -225 -206 -269 -8 -12
-20 -28 -26 -34 -6 -6 -70 -101 -143 -211 -74 -110 -147 -214 -163 -231 -26
-28 -33 -30 -84 -28 -34 2 -63 9 -74 19 -24 22 -32 81 -16 120 14 32 124 210
151 243 7 9 42 53 76 97 34 44 65 82 68 85 3 3 21 23 40 45 152 181 348 384
385 400 35 15 55 6 81 -37z m4151 -98 c50 -22 559 -336 759 -469 55 -36 104
-68 110 -70 5 -2 16 -10 23 -18 8 -7 29 -25 47 -39 18 -14 40 -40 49 -59 15
-30 15 -38 2 -69 -20 -47 -57 -70 -100 -62 -40 8 -149 73 -307 183 -63 44
-202 140 -309 213 -107 73 -231 161 -275 194 -84 63 -175 148 -175 163 0 18
31 52 53 56 31 6 75 -2 123 -23z m-1950 -994 c131 -8 164 -16 210 -51 45 -34
68 -79 58 -114 -4 -14 -7 -29 -6 -32 3 -14 -36 -38 -75 -47 -53 -12 -228 -8
-308 6 -60 11 -111 14 -465 28 -203 7 -247 16 -269 55 -33 59 5 95 130 123
104 24 133 26 369 32 124 4 227 8 229 10 2 2 7 2 10 0 3 -2 56 -7 117 -10z"/>
<path d="M5438 7520 c-198 -14 -470 -60 -628 -106 -107 -31 -215 -67 -235 -77
-11 -6 -25 -12 -31 -13 -6 -1 -42 -18 -80 -37 -239 -122 -250 -130 -430 -312
-196 -198 -310 -400 -366 -647 -30 -137 -28 -320 5 -449 25 -95 95 -252 129
-289 10 -10 18 -23 18 -28 0 -21 165 -183 285 -281 377 -308 525 -505 581
-774 18 -86 20 -279 4 -334 -16 -54 -10 -67 36 -81 90 -26 468 -45 613 -31 46
5 85 10 87 11 1 2 5 32 8 68 25 253 90 478 187 644 130 222 345 436 629 626
36 24 67 47 68 52 2 4 8 8 12 8 14 0 224 148 285 201 88 75 197 187 247 253
85 113 182 310 205 418 9 43 8 233 -1 278 -50 249 -207 479 -430 629 -93 63
-269 149 -381 186 -83 27 -305 75 -346 75 -13 0 -40 2 -59 4 -79 11 -303 13
-412 6z m-50 -1387 c62 -62 102 -237 83 -363 -5 -36 -16 -91 -22 -122 -7 -32
-10 -60 -7 -63 4 -4 17 -1 30 6 26 15 39 19 86 26 149 24 234 -143 135 -265
-41 -50 -128 -93 -218 -108 -16 -3 -38 -14 -47 -25 -13 -16 -157 -425 -173
-495 -2 -10 -20 -71 -40 -134 -19 -63 -35 -116 -35 -117 -2 -9 -10 -34 -25
-75 -31 -88 -66 -114 -117 -87 -12 6 -43 13 -71 15 -28 2 -54 7 -59 12 -5 5 0
58 12 128 49 278 65 414 65 557 0 92 -8 103 -82 105 -127 5 -219 60 -271 163
-64 124 -41 267 54 347 58 49 64 53 64 48 0 -2 21 2 47 10 116 35 225 -38 296
-197 29 -65 43 -77 65 -56 14 14 14 25 2 89 -18 102 -15 296 6 388 47 208 139
296 222 213z"/>
<path d="M4807 5472 c-22 -24 -21 -81 1 -108 33 -41 106 -63 136 -41 26 19 12
77 -31 126 -39 46 -78 54 -106 23z"/>
<path d="M5531 5466 c-28 -30 -26 -73 4 -68 30 5 62 40 61 65 -1 31 -37 33
-65 3z"/>
<path d="M5207 5243 l-57 -48 1 -138 c1 -91 5 -137 11 -135 13 5 126 298 130
336 5 42 -21 37 -85 -15z"/>
<path d="M5062 3024 c-26 -18 -29 -44 -4 -44 24 0 62 28 62 46 0 19 -30 18
-58 -2z"/>
</g>
</svg>
