<!DOCTYPE svg PUBLIC "-//W3C//DTD SVG 20010904//EN" "http://www.w3.org/TR/2001/REC-SVG-20010904/DTD/svg10.dtd">
<svg version="1.0" xmlns="http://www.w3.org/2000/svg" width="475px" height="475px" viewBox="0 0 4750 4750" preserveAspectRatio="xMidYMid meet">
<g id="layer101" fill="#0dbee5" stroke="none">
 <path d="M1210 4724 c-36 -24 -1126 -1112 -1161 -1158 l-29 -39 0 -1699 c0 -1846 -4 -1723 55 -1778 l27 -25 2261 -3 c2189 -2 2263 -2 2297 16 19 11 45 37 57 58 l23 39 0 2250 c0 2160 -1 2252 -18 2284 -10 19 -34 43 -53 53 -32 17 -106 18 -1734 18 -1557 0 -1703 -1 -1725 -16z m3250 -2349 l0 -2085 -2085 0 -2085 0 0 1535 0 1535 511 0 c564 0 545 -2 585 64 18 29 19 62 22 534 l3 502 1524 0 1525 0 0 -2085z m-3330 1570 l0 -315 -322 0 -323 0 316 315 c174 173 319 315 323 315 3 0 6 -142 6 -315z"/>
 <path d="M2044 3576 c-38 -38 -44 -77 -20 -124 28 -54 44 -57 351 -57 306 0 317 2 348 55 26 44 22 93 -12 129 l-29 31 -302 0 -302 0 -34 -34z"/>
 <path d="M1995 3216 c-49 -21 -61 -50 -68 -161 -13 -196 -70 -352 -195 -538 -84 -125 -114 -181 -140 -272 -99 -337 5 -682 273 -908 79 -66 218 -138 315 -164 99 -26 291 -23 395 6 400 111 651 478 614 896 -15 161 -54 260 -182 457 -121 186 -172 329 -184 516 -7 109 -20 145 -63 167 -40 21 -718 22 -765 1z"/>
 </g>
<g id="layer102" fill="#a2e6f5" stroke="none">
 <path d="M1210 4724 c-36 -24 -1126 -1112 -1161 -1158 l-29 -39 0 -541 c0 -298 3 -552 7 -564 5 -22 17 -13 134 104 l129 129 0 352 0 353 353 0 352 0 205 205 204 204 4 346 4 345 342 0 341 0 133 133 c73 73 130 136 126 140 -4 4 -258 7 -563 7 -498 0 -559 -2 -581 -16z m-80 -779 l0 -315 -322 0 -323 0 316 315 c174 173 319 315 323 315 3 0 6 -142 6 -315z"/>
 </g>

</svg>